<?xml version="1.0" encoding="UTF-8"?>
<svg version="1.1" xmlns="http://www.w3.org/2000/svg" width="500" height="500">
<path d="M0 0 C46.19011107 -0.94748946 90.2225197 15.66582296 123.73046875 47.53515625 C133.16004496 56.78392647 141.78530707 66.0374863 148.984375 77.125 C149.44247559 77.81916016 149.90057617 78.51332031 150.37255859 79.22851562 C174.12358241 115.50515587 184.90056182 163.13287802 176.1640625 206.13671875 C174.63405269 212.83793548 172.89623627 219.48837055 171.109375 226.125 C170.78195312 227.34276123 170.45453125 228.56052246 170.1171875 229.81518555 C168.02160878 237.27505696 165.44135019 244.1915108 161.984375 251.125 C161.64325684 251.81207031 161.30213867 252.49914062 160.95068359 253.20703125 C160.02642438 255.02635759 159.07710602 256.82846223 158.109375 258.625 C157.59793945 259.57572388 157.59793945 259.57572388 157.07617188 260.5456543 C148.78652032 275.78115721 138.24842804 288.90188659 125.984375 301.125 C124.68924921 302.41971793 123.39434755 303.71466008 122.09960938 305.00976562 C98.65885417 328.45052083 75.21809896 351.89127604 51.77734375 375.33203125 C51.11186523 375.99778168 50.44638672 376.6635321 49.76074219 377.34945679 C48.34640572 378.7631372 46.92950181 380.17424886 45.51171875 381.58447266 C42.57139546 384.5401338 39.66232393 387.52523537 36.75244141 390.51083374 C33.39459167 393.94871588 30.02104858 397.37101257 26.64648438 400.79248047 C24.86636663 402.60296339 23.09164402 404.41876623 21.32226562 406.23974609 C18.76524472 408.86926963 16.18957001 411.47917536 13.609375 414.0859375 C12.81966309 414.90661713 12.02995117 415.72729675 11.21630859 416.57284546 C10.47203613 417.31757111 9.72776367 418.06229675 8.9609375 418.82958984 C8.31205566 419.49179535 7.66317383 420.15400085 6.99462891 420.83627319 C4.984375 422.125 4.984375 422.125 2.4901123 422.05685425 C-0.42998716 420.97090358 -1.89948488 419.7243481 -4.08398438 417.51074219 C-4.84827759 416.74614685 -5.6125708 415.98155151 -6.40002441 415.19378662 C-7.21161011 414.36155579 -8.0231958 413.52932495 -8.859375 412.671875 C-9.70608765 411.81950256 -10.55280029 410.96713013 -11.4251709 410.08892822 C-14.13151836 407.36019518 -16.82365772 404.61791328 -19.515625 401.875 C-21.32850306 400.04205438 -23.14229498 398.21001214 -24.95703125 396.37890625 C-28.29281789 393.010455 -31.62329968 389.63695173 -34.94726562 386.25683594 C-40.00014982 381.12094501 -45.106595 376.04071766 -50.2233429 370.96858215 C-53.55276652 367.66581908 -56.87699485 364.35784845 -60.20092773 361.04956055 C-61.95958075 359.30104009 -63.72001355 357.554308 -65.48217773 355.80932617 C-68.02533731 353.29029031 -70.56210263 350.7649698 -73.09765625 348.23828125 C-73.89130081 347.45495926 -74.68494537 346.67163727 -75.50263977 345.86457825 C-76.22726913 345.14009995 -76.9518985 344.41562164 -77.69848633 343.66918945 C-78.34070633 343.03141068 -78.98292633 342.3936319 -79.64460754 341.73652649 C-81.015625 340.125 -81.015625 340.125 -81.015625 338.125 C-81.59431335 337.87097412 -82.17300171 337.61694824 -82.76922607 337.35522461 C-85.26861087 335.98645406 -86.94181695 334.45278141 -88.95800781 332.44140625 C-89.71849426 331.68722412 -90.47898071 330.93304199 -91.26251221 330.15600586 C-92.07307068 329.34139893 -92.88362915 328.52679199 -93.71875 327.6875 C-94.55653992 326.85162354 -95.39432983 326.01574707 -96.25750732 325.15454102 C-98.02504403 323.38836443 -99.79006102 321.61966312 -101.55273438 319.84863281 C-104.26210774 317.12853119 -106.98200265 314.41928001 -109.703125 311.7109375 C-111.41730857 309.99543283 -113.1308719 308.27930814 -114.84375 306.5625 C-115.6624054 305.74789307 -116.48106079 304.93328613 -117.32452393 304.09399414 C-118.07240173 303.33981201 -118.82027954 302.58562988 -119.59082031 301.80859375 C-120.25382141 301.14400146 -120.91682251 300.47940918 -121.59991455 299.79467773 C-123.015625 298.125 -123.015625 298.125 -123.015625 296.125 C-123.61689209 295.85816406 -124.21815918 295.59132813 -124.83764648 295.31640625 C-128.41618087 293.3588625 -130.55179858 290.26989634 -133.078125 287.125 C-133.93313599 286.06454468 -133.93313599 286.06454468 -134.80541992 284.98266602 C-140.97914217 277.15163775 -146.09315716 268.78094325 -151.015625 260.125 C-151.59401123 259.12073975 -151.59401123 259.12073975 -152.18408203 258.09619141 C-176.15335115 216.20499391 -176.02359907 165.60373021 -164.015625 120.125 C-158.89466974 102.21232526 -149.2737013 85.82942619 -138.015625 71.125 C-137.42265625 70.320625 -136.8296875 69.51625 -136.21875 68.6875 C-111.7362613 36.04418173 -75.4161094 11.32551323 -35.015625 4.125 C-34.3129248 3.99496582 -33.61022461 3.86493164 -32.88623047 3.73095703 C-21.92703344 1.71134377 -11.14516711 0.46197584 0 0 Z M-77.26416016 44.22045898 C-79.015625 45.125 -79.015625 45.125 -82.015625 46.125 C-82.015625 46.785 -82.015625 47.445 -82.015625 48.125 C-82.56992188 48.3828125 -83.12421875 48.640625 -83.6953125 48.90625 C-100.4531131 57.70832708 -115.30562195 74.17705559 -125.015625 90.125 C-125.75178804 91.25788967 -126.49014265 92.38935768 -127.23046875 93.51953125 C-148.50764834 126.67753117 -156.67427425 168.69715594 -148.91992188 207.41210938 C-143.95165905 229.66128638 -134.41432787 250.72265604 -121.015625 269.125 C-120.42910156 269.95515625 -119.84257812 270.7853125 -119.23828125 271.640625 C-109.73535522 284.31119304 -97.8473181 296.34886236 -84.015625 304.125 C-82.44268505 305.25645932 -80.88036712 306.40280837 -79.328125 307.5625 C-48.25252671 329.43776368 -7.15736932 336.33917734 29.92749023 330.81420898 C51.0353074 327.07086168 72.60644616 318.80466143 89.984375 306.125 C91.15858633 305.29128932 92.33309283 304.45799427 93.5078125 303.625 C110.92124926 291.17708778 124.66826493 277.25461041 135.984375 259.125 C136.5721875 258.19300781 137.16 257.26101563 137.765625 256.30078125 C139.2222517 253.93376286 140.62068317 251.54658609 141.984375 249.125 C142.38914062 248.41085937 142.79390625 247.69671875 143.2109375 246.9609375 C161.91935617 211.83739019 164.77225846 169.54844007 153.78222656 131.65527344 C146.95013716 109.98826775 135.69088322 90.71213152 120.55859375 73.88671875 C119.00535861 72.1484829 117.52846064 70.361852 116.046875 68.5625 C112.68821442 64.66155568 108.94681345 61.40045222 104.984375 58.125 C104.44071289 57.66899414 103.89705078 57.21298828 103.33691406 56.74316406 C95.61510608 50.28545389 88.11681789 44.4828047 78.984375 40.125 C77.93894531 39.58746094 76.89351562 39.04992187 75.81640625 38.49609375 C59.19890601 30.25189552 41.37878174 24.52787295 22.984375 22.125 C21.79328125 21.93164062 21.79328125 21.93164062 20.578125 21.734375 C-13.52722307 16.74974721 -47.90052997 27.7459478 -77.26416016 44.22045898 Z " fill="#7C8EF4" transform="translate(248.015625,36.875)"/>
<path d="M0 0 C1.81858675 2.72788013 2.38853648 4.02353391 3.03515625 7.09765625 C3.20466797 7.90009766 3.37417969 8.70253906 3.54882812 9.52929688 C3.71833984 10.36525391 3.88785156 11.20121094 4.0625 12.0625 C4.23587891 12.87138672 4.40925781 13.68027344 4.58789062 14.51367188 C10.36121033 42.36275047 7.43543577 70.84811407 0.125 98 C-0.20242188 99.21776123 -0.52984375 100.43552246 -0.8671875 101.69018555 C-2.96276622 109.15005696 -5.54302481 116.0665108 -9 123 C-9.34111816 123.68707031 -9.68223633 124.37414062 -10.03369141 125.08203125 C-10.95795062 126.90135759 -11.90726898 128.70346223 -12.875 130.5 C-13.21595703 131.13381592 -13.55691406 131.76763184 -13.90820312 132.4206543 C-22.19785468 147.65615721 -32.73594696 160.77688659 -45 173 C-46.29512579 174.29471793 -47.59002745 175.58966008 -48.88476562 176.88476562 C-87.92317708 215.92317708 -126.96158854 254.96158854 -166 294 C-166.99 293.67 -167.98 293.34 -169 293 C-168.00746641 292.01023179 -168.00746641 292.01023179 -166.99488163 291.00046825 C-150.86289687 274.91296717 -134.73674531 258.8196369 -118.61662388 242.72024822 C-110.82078831 234.93470644 -103.02309783 227.1510399 -95.22094727 219.37182617 C-88.41721194 212.58808295 -81.61705043 205.80078065 -74.82108063 199.00925761 C-71.22563971 195.41641424 -67.62848586 191.82532594 -64.02704048 188.2385006 C-60.63035935 184.85549547 -57.23851255 181.46771512 -53.85015678 178.07637215 C-52.61241357 176.83917464 -51.37298349 175.60366183 -50.13165283 174.37006378 C-42.94757728 167.22851357 -36.25351864 159.98505254 -30 152 C-29.29998147 151.14300853 -28.59996294 150.28601706 -27.87873173 149.40305614 C-25.97990137 146.97429215 -24.48761453 144.44630134 -23 141.75 C-22.07961129 140.13931975 -21.04403509 138.59592655 -20 137.0625 C-18.10488403 134.16060367 -16.56026899 131.28233803 -15.05859375 128.16796875 C-14.35081032 126.71844919 -13.6133512 125.28306137 -12.84765625 123.86328125 C-8.62629353 115.91956674 -5.79634594 107.52466657 -3 99 C-2.61585938 97.83210938 -2.23171875 96.66421875 -1.8359375 95.4609375 C2.81398769 80.30431111 4.27290328 65.53815044 4.25 49.75 C4.24931519 49.08107727 4.24863037 48.41215454 4.2479248 47.72296143 C4.51638437 31.09476025 4.51638437 31.09476025 2 14.75 C0.69756593 9.86587225 0.3513424 5.02974385 0 0 Z " fill="#EDECFC" transform="translate(419,165)"/>
<path d="M0 0 C0.7318602 -0.00961258 1.4637204 -0.01922516 2.21775818 -0.02912903 C4.56839718 -0.05368727 6.9187792 -0.06636593 9.26953125 -0.07421875 C10.06872986 -0.07750183 10.86792847 -0.08078491 11.69134521 -0.08416748 C24.41908084 -0.10108884 36.81322773 0.51139415 49.08203125 4.23828125 C50.07203125 5.22828125 50.07203125 5.22828125 51.08203125 6.23828125 C45.34398833 5.73113863 39.68524559 5.05059936 34.00708008 4.08276367 C-0.81277169 -1.76085788 -35.32387178 6.01836524 -65.96655273 23.08837891 C-66.70591064 23.49878418 -67.44526855 23.90918945 -68.20703125 24.33203125 C-68.85365723 24.70005859 -69.5002832 25.06808594 -70.16650391 25.44726562 C-71.91796875 26.23828125 -71.91796875 26.23828125 -74.91796875 26.23828125 C-74.91796875 26.89828125 -74.91796875 27.55828125 -74.91796875 28.23828125 C-77.20059276 29.98634728 -79.50506549 31.64824313 -81.85546875 33.30078125 C-95.78806832 43.44886872 -107.88955004 55.51336025 -116.91796875 70.23828125 C-117.65584612 71.3722057 -118.39548258 72.50498706 -119.13671875 73.63671875 C-140.40620809 106.80054022 -148.57718825 148.8075901 -140.82226562 187.52539062 C-137.12289186 204.09215139 -131.01325758 225.03629201 -119.91796875 238.23828125 C-120.24796875 238.89828125 -120.57796875 239.55828125 -120.91796875 240.23828125 C-133.88407873 222.46451251 -141.9828689 200.08088478 -144.91796875 178.23828125 C-145.02882813 177.45453125 -145.1396875 176.67078125 -145.25390625 175.86328125 C-150.1572379 133.45608856 -138.11312737 92.05642027 -112.16357422 58.359375 C-100.06919987 43.19121831 -83.86740525 27.74408308 -66.1953125 19.33203125 C-64.52609328 18.53034792 -62.87457595 17.6915252 -61.234375 16.83203125 C-53.6746881 12.89657671 -45.98895548 9.95129968 -37.91796875 7.23828125 C-37.11617188 6.95082031 -36.314375 6.66335937 -35.48828125 6.3671875 C-24.01327373 2.31100352 -12.16002136 0.13523448 0 0 Z " fill="#EEF1FC" transform="translate(240.91796875,56.76171875)"/>
<path d="M0 0 C1.81858675 2.72788013 2.38853648 4.02353391 3.03515625 7.09765625 C3.20466797 7.90009766 3.37417969 8.70253906 3.54882812 9.52929688 C3.71833984 10.36525391 3.88785156 11.20121094 4.0625 12.0625 C4.23587891 12.87138672 4.40925781 13.68027344 4.58789062 14.51367188 C10.36121033 42.36275047 7.43543577 70.84811407 0.125 98 C-0.20242188 99.21776123 -0.52984375 100.43552246 -0.8671875 101.69018555 C-2.96276622 109.15005696 -5.54302481 116.0665108 -9 123 C-9.51167725 124.03060547 -9.51167725 124.03060547 -10.03369141 125.08203125 C-10.95795062 126.90135759 -11.90726898 128.70346223 -12.875 130.5 C-13.38643555 131.45072388 -13.38643555 131.45072388 -13.90820312 132.4206543 C-21.08799919 145.6163602 -29.92027199 156.90157607 -40 168 C-40.99 167.67 -41.98 167.34 -43 167 C-42.35933594 166.31035156 -41.71867187 165.62070312 -41.05859375 164.91015625 C-33.85811638 157.08728293 -27.12715662 149.37032071 -22 140 C-21.34 139.030625 -20.68 138.06125 -20 137.0625 C-18.10488403 134.16060367 -16.56026899 131.28233803 -15.05859375 128.16796875 C-14.35081032 126.71844919 -13.6133512 125.28306137 -12.84765625 123.86328125 C-8.62629353 115.91956674 -5.79634594 107.52466657 -3 99 C-2.42378906 97.24816406 -2.42378906 97.24816406 -1.8359375 95.4609375 C2.81398769 80.30431111 4.27290328 65.53815044 4.25 49.75 C4.24897278 48.74661591 4.24897278 48.74661591 4.2479248 47.72296143 C4.51638437 31.09476025 4.51638437 31.09476025 2 14.75 C0.69756593 9.86587225 0.3513424 5.02974385 0 0 Z " fill="#ECF4FB" transform="translate(419,165)"/>
<path d="M0 0 C1.81858675 2.72788013 2.38853648 4.02353391 3.03515625 7.09765625 C3.20466797 7.90009766 3.37417969 8.70253906 3.54882812 9.52929688 C3.71833984 10.36525391 3.88785156 11.20121094 4.0625 12.0625 C4.23587891 12.87138672 4.40925781 13.68027344 4.58789062 14.51367188 C6.85860126 25.46702316 7.23597501 36.26839012 7.25 47.4375 C7.25167175 48.14221436 7.25334351 48.84692871 7.25506592 49.57299805 C7.25709407 63.8722635 5.55483025 77.15161782 2 91 C1.67 91 1.34 91 1 91 C1.11842508 89.2703706 1.24528265 87.54131918 1.375 85.8125 C1.44460938 84.84957031 1.51421875 83.88664062 1.5859375 82.89453125 C1.93930133 79.57091105 2.45706433 76.35661648 3.02734375 73.06640625 C4.12055949 66.0924266 4.27058591 59.21255261 4.20581055 52.17138672 C4.18757749 50.13366007 4.18530189 48.09639364 4.18554688 46.05859375 C4.42339279 30.25190874 4.42339279 30.25190874 2 14.75 C0.69756593 9.86587225 0.3513424 5.02974385 0 0 Z " fill="#D8F2F8" transform="translate(419,165)"/>
<path d="M0 0 C8.48883758 7.43758834 16.46535109 24.90677285 17.875 35.875 C17.91625 36.90625 17.9575 37.9375 18 39 C14.87622049 35.42996627 13.57870505 31.38748445 12 27 C7.92289066 15.56113258 7.92289066 15.56113258 1.1015625 5.61328125 C0 4 0 4 0 0 Z " fill="#E4F8FA" transform="translate(399,119)"/>
<path d="M0 0 C4.20696128 1.42777089 7.14972107 3.4882949 10.5625 6.3125 C11.49191406 7.07175781 12.42132813 7.83101563 13.37890625 8.61328125 C15.90246876 10.91118989 17.95178215 13.2770751 20 16 C16.21388773 15.45912682 14.44599233 13.88277668 12 11 C12 10.34 12 9.68 12 9 C11.319375 8.79375 10.63875 8.5875 9.9375 8.375 C6.05852171 6.55930804 3.03879438 4.00376505 0 1 C0 0.67 0 0.34 0 0 Z " fill="#B6F0F3" transform="translate(351,69)"/>
<path d="M0 0 C9.00088518 1.00009835 17.34006279 3.06359602 25 8 C21.56749561 9.14416813 20.92012819 8.8620549 17.65625 7.63671875 C16.82222656 7.32669922 15.98820312 7.01667969 15.12890625 6.69726562 C14.26136719 6.36404297 13.39382813 6.03082031 12.5 5.6875 C11.63246094 5.36587891 10.76492188 5.04425781 9.87109375 4.71289062 C6.2763489 3.35999979 3.21335385 2.1422359 0 0 Z " fill="#F0FAFC" transform="translate(292,63)"/>
<path d="M0 0 C8.00173577 1.03248203 14.71948071 5.18938948 21 10 C18 11 18 11 16.22241211 10.3190918 C15.58053955 9.94953369 14.93866699 9.57997559 14.27734375 9.19921875 C13.57416016 8.79896484 12.87097656 8.39871094 12.14648438 7.98632812 C11.41751953 7.55771484 10.68855469 7.12910156 9.9375 6.6875 C9.20466797 6.27048828 8.47183594 5.85347656 7.71679688 5.42382812 C2.31194196 2.31194196 2.31194196 2.31194196 0 0 Z " fill="#E2F7FA" transform="translate(317,72)"/>
<path d="M0 0 C-2.28703308 1.19725883 -4.57884862 2.38297018 -6.875 3.5625 C-7.52597656 3.90474609 -8.17695313 4.24699219 -8.84765625 4.59960938 C-10.53529857 5.46082891 -12.26579593 6.23686703 -14 7 C-14.66 6.67 -15.32 6.34 -16 6 C-11.32764648 1.89399236 -6.34675212 -2.04151545 0 0 Z " fill="#F5F9FD" transform="translate(196,69)"/>
<path d="M0 0 C0.33 0 0.66 0 1 0 C1.44895473 7.03362418 -0.06756918 13.10135377 -4 19 C-3.46048934 12.31006781 -2.11293829 6.36539272 0 0 Z " fill="#E7E6FC" transform="translate(102,165)"/>
<path d="M0 0 C4.21814817 3.9700218 7.61227103 8.30840284 11 13 C10.67 13.66 10.34 14.32 10 15 C5 9.25 5 9.25 5 7 C4.34 7 3.68 7 3 7 C0.70351351 4.4385343 0 3.52032428 0 0 Z " fill="#D2F5F7" transform="translate(386,101)"/>
<path d="M0 0 C3.80635497 3.20760251 7.54563567 6.40746109 11 10 C10.67 10.66 10.34 11.32 10 12 C1.18451025 4.88610478 1.18451025 4.88610478 0 0 Z " fill="#BEF2F4" transform="translate(375,89)"/>
<path d="M0 0 C0.99 0.33 1.98 0.66 3 1 C-0.3 3.64 -3.6 6.28 -7 9 C-7.66 8.67 -8.32 8.34 -9 8 C-2.92207792 1.75324675 -2.92207792 1.75324675 0 0 Z " fill="#F6F9FD" transform="translate(161,85)"/>
<path d="M0 0 C0.67095703 0.58007812 0.67095703 0.58007812 1.35546875 1.171875 C4.8521026 4.18390075 8.37407463 7.14321031 12 10 C11.67 10.99 11.34 11.98 11 13 C9.16052663 11.21427748 7.32842259 9.42197551 5.5 7.625 C4.71302734 6.86316406 4.71302734 6.86316406 3.91015625 6.0859375 C2.56846819 4.76167396 1.28004185 3.38394135 0 2 C0 1.34 0 0.68 0 0 Z " fill="#D2F5F8" transform="translate(361,102)"/>
<path d="M0 0 C3.90829085 0.5647301 5.89920223 2.42131971 8.75 5.0625 C9.54921875 5.79597656 10.3484375 6.52945313 11.171875 7.28515625 C11.77515625 7.85105469 12.3784375 8.41695312 13 9 C9.02348017 9 7.85083826 7.55718178 4.8125 5.0625 C3.91144531 4.33160156 3.01039063 3.60070312 2.08203125 2.84765625 C1.39496094 2.23792969 0.70789063 1.62820312 0 1 C0 0.67 0 0.34 0 0 Z " fill="#CCF2F7" transform="translate(338,83)"/>
<path d="M0 0 C0 3.56229451 -0.76109009 4.41109679 -2.875 7.1875 C-3.40867187 7.90292969 -3.94234375 8.61835938 -4.4921875 9.35546875 C-4.98976563 9.89816406 -5.48734375 10.44085938 -6 11 C-6.66 11 -7.32 11 -8 11 C-6.52670958 5.99081256 -3.72484762 3.48192278 0 0 Z " fill="#F8FAFD" transform="translate(397,308)"/>
<path d="M0 0 C0.8125 1.6875 0.8125 1.6875 1 4 C-1.4375 6.75 -1.4375 6.75 -4 9 C-4 5.00095031 -2.27413033 3.19799578 0 0 Z " fill="#E8EBFC" transform="translate(123,123)"/>
<path d="M0 0 C3.80666984 1.44390925 5.26602582 3.34952803 7 7 C6.67 7.66 6.34 8.32 6 9 C4.99406757 7.8803014 3.9954151 6.7540588 3 5.625 C2.443125 4.99851562 1.88625 4.37203125 1.3125 3.7265625 C0 2 0 2 0 0 Z " fill="#CFB8FE" transform="translate(112,318)"/>
<path d="M0 0 C0.8125 1.6875 0.8125 1.6875 1 4 C-1.4375 6.75 -1.4375 6.75 -4 9 C-4 5.00095031 -2.27413033 3.19799578 0 0 Z " fill="#E1EDFA" transform="translate(399,302)"/>
<path d="M0 0 C0.66 0.33 1.32 0.66 2 1 C1.75 3.375 1.75 3.375 1 6 C-1.0625 7.3125 -1.0625 7.3125 -3 8 C-1.125 2.25 -1.125 2.25 0 0 Z " fill="#E7E9FC" transform="translate(110,145)"/>
</svg>
